<svg width="54" height="54" viewBox="0 0 54 54" fill="none" xmlns="http://www.w3.org/2000/svg">
<path d="M14.6932 12.3068C14.0342 11.6477 12.9658 11.6477 12.3068 12.3068C11.6477 12.9658 11.6477 14.0342 12.3068 14.6932L24.6134 27L12.3068 39.3068C11.6477 39.9658 11.6477 41.0341 12.3068 41.6932C12.9658 42.3522 14.0342 42.3522 14.6932 41.6932L27 29.3866L39.3068 41.6932C39.9658 42.3522 41.0341 42.3522 41.6932 41.6932C42.3522 41.0341 42.3522 39.9658 41.6932 39.3068L29.3866 27L41.6932 14.6932C42.3522 14.0342 42.3522 12.9658 41.6932 12.3068C41.0341 11.6477 39.9658 11.6477 39.3068 12.3068L27 24.6134L14.6932 12.3068Z" fill="black"/>
</svg>
