<svg width="40" height="40" viewBox="0 0 40 40" fill="none" xmlns="http://www.w3.org/2000/svg">
<path fill-rule="evenodd" clip-rule="evenodd" d="M33.3655 14.7551L26.5321 13.8095C26.1455 13.7631 25.8088 13.5311 25.6305 13.1887L22.5838 7.33269C22.5788 7.32629 22.5755 7.31989 22.5721 7.31189C22.2921 6.81429 21.8571 6.39669 21.3321 6.12949C19.9205 5.43989 18.1688 5.97109 17.4238 7.33269L14.3739 13.1871C14.1939 13.5295 13.8539 13.7631 13.4522 13.8111L6.63386 14.7551C5.97386 14.8495 5.39553 15.1311 4.96553 15.5663C4.43553 16.0927 4.15219 16.7871 4.16719 17.5199C4.18219 18.2527 4.49386 18.9327 5.04053 19.4351L9.98553 24.0047C10.2605 24.2511 10.3889 24.6271 10.3222 24.9935L9.15386 31.4223C9.05386 32.0223 9.16053 32.6415 9.45053 33.1535C9.81386 33.8095 10.4189 34.2879 11.1555 34.5055C11.4339 34.5871 11.7189 34.6271 12.0005 34.6271C12.4639 34.6271 12.9222 34.5183 13.3372 34.3055L19.4371 31.2783C19.7905 31.0975 20.2155 31.0975 20.5771 31.2815L26.6471 34.2959C27.1921 34.5839 27.8138 34.6879 28.4688 34.5919C30.0338 34.3455 31.1055 32.9215 30.8505 31.4095L29.6838 24.9935C29.6155 24.6159 29.7421 24.2463 30.0305 23.9807L34.9605 19.4351C35.4221 19.0079 35.7255 18.4367 35.8088 17.8271C36.0138 16.3359 34.9155 14.9567 33.3655 14.7551Z" fill="white"/>
</svg>
